<svg xmlns="http://www.w3.org/2000/svg"  viewBox="0 0 575.983 77.847">
<g>
	<path fill="#1A171B" d="M14.246,76.042c-2.979,0-5.647-0.465-8-1.389c-3.307-1.182-4.347-2.992-3.125-5.432l17.381-34.856
		c1.222-2.445,4.066-4.255,8.545-5.433c3.279-0.925,6.41-1.392,9.386-1.392c2.979,0,5.648,0.467,7.997,1.392
		c3.304,1.178,4.35,2.987,3.13,5.433L32.174,69.222c-1.177,2.357-4.024,4.166-8.542,5.432
		C20.354,75.577,17.223,76.042,14.246,76.042z"/>
	<linearGradient id="SVGID_1_" gradientUnits="userSpaceOnUse" x1="75.459" y1="26.8477" x2="75.459" y2="75.5518">
		<stop offset="0.3503" style="stop-color:#0590B6"/>
		<stop offset="1" style="stop-color:#1F4854"/>
	</linearGradient>
	<path fill="url(#SVGID_1_)" d="M40.452,68.194c0.22-1.012,0.82-2.029,1.788-3.043l32.784-34.75
		c2.22-2.366,5.697-3.554,10.421-3.554c4.038,0,7.122,0.934,9.254,2.794c0.545,0.34,0.972,0.716,1.291,1.142l14.252,23.843
		c0.349,0.592,0.435,1.311,0.25,2.156c-0.366,1.691-1.736,2.961-4.107,3.805c-1.791,0.676-3.541,1.014-5.252,1.014
		c-3.081,0-5.056-0.848-5.92-2.537L87.33,44.228L62.015,72.003c-2.158,2.365-5.662,3.549-10.525,3.549
		c-2.256,0-4.309-0.338-6.146-1.016C41.476,73.099,39.85,70.985,40.452,68.194z"/>
	<linearGradient id="SVGID_2_" gradientUnits="userSpaceOnUse" x1="130.2769" y1="26.8477" x2="130.2769" y2="75.5518">
		<stop offset="0.2487" style="stop-color:#34A2B1"/>
		<stop offset="1" style="stop-color:#235B63"/>
	</linearGradient>
	<path fill="url(#SVGID_2_)" d="M109.624,34.205c0.572-2.619,2.668-4.563,6.294-5.835c2.622-1.011,5.262-1.522,7.933-1.522
		c4.721,0,7.685,1.188,8.884,3.554l17.741,34.75c0.539,1.014,0.693,2.031,0.473,3.043c-0.566,2.625-2.666,4.566-6.294,5.838
		c-2.614,1.014-5.254,1.52-7.929,1.52c-4.72,0-7.688-1.184-8.885-3.549l-17.849-34.752C109.514,36.32,109.387,35.305,109.624,34.205
		z"/>
	<path fill="#1A171B" d="M187.733,69.294c-1.219,2.443-4.069,4.254-8.547,5.434c-3.191,0.928-6.319,1.387-9.381,1.387
		c-2.979,0-5.651-0.459-8-1.387c-3.306-1.18-4.346-2.99-3.127-5.434l13.604-27.279c0.044-0.08,0.259-0.42,0.633-1.012
		c2.971-4.631,8.666-8.164,17.087-10.607c6.178-1.765,12.167-2.652,17.961-2.652h36.38c12.253,0,20.121,1.895,23.614,5.681
		c2.01,2.107,2.432,4.339,1.254,6.696l-1.887,3.789c-2.438,4.887-8.074,8.633-16.907,11.24c-6.514,1.938-12.746,2.904-18.708,2.904
		h-19.744c-2.071,0-4.035-0.291-5.898-0.869c-2.484-0.826-3.331-2.035-2.544-3.613c0.792-1.576,2.828-2.779,6.129-3.613
		c2.352-0.578,4.602-0.869,6.746-0.869h11.75c1.81,0,3.689-0.299,5.636-0.895c2.732-0.852,4.482-2.041,5.247-3.572l2.545-5.102
		c1.018-2.041-1.379-3.063-7.192-3.063h-21.552c-5.815,0-9.221,1.01-10.233,3.031l-0.314,0.631L187.733,69.294z"/>
	<path fill="#1A171B" d="M309.022,53.552c0.748-1.52,2.779-2.697,6.083-3.541c2.352-0.588,4.625-0.926,6.809-1.014h11.75
		c1.813,0,3.694-0.291,5.637-0.885c2.688-0.76,4.407-1.902,5.163-3.426l2.521-5.072c1.048-2.113-1.335-3.174-7.145-3.174h-21.552
		c-5.815,0-9.244,1.061-10.294,3.174l-0.254,0.506l-14.612,29.428c-1.175,2.367-4.021,4.188-8.544,5.453
		c-3.152,0.846-6.262,1.268-9.32,1.268c-2.982,0-5.672-0.422-8.061-1.268c-3.263-1.266-4.305-3.086-3.131-5.453l13.667-27.521
		c0.044-0.084,0.253-0.424,0.633-1.016c2.971-4.65,8.644-8.162,17.021-10.528c6.222-1.86,12.227-2.79,18.025-2.79h36.384
		c12.245,0,20.12,1.9,23.611,5.706c2.009,2.117,2.432,4.356,1.258,6.722l-1.89,3.805c-1.977,3.973-6.427,7.357-13.356,10.148
		c-2.781,1.098-6.018,2.025-9.703,2.787l9.444,6.979c1.779,1.42,2.17,3.139,1.169,5.146c-1.208,2.426-4.23,4.311-9.067,5.65
		c-3.652,1.092-6.946,1.633-9.893,1.633c-3.351,0-5.831-0.609-7.436-1.83l-23.311-17.602
		C308.929,55.907,308.39,54.815,309.022,53.552z"/>
	<path fill="#1A171B" d="M448.719,74.655c-2.677,0.875-5.338,1.309-7.983,1.309h-31.167c-10.181,0-18.593-1.557-25.235-4.672
		c-9.154-4.375-11.569-10.906-7.245-19.58c4.325-8.67,13.228-15.154,26.709-19.449c9.75-3.113,19.717-4.674,29.896-4.674h31.048
		c2.149,0,4.113,0.293,5.894,0.872c2.486,0.833,3.331,2.035,2.546,3.612c-0.789,1.579-2.838,2.784-6.144,3.611
		c-2.447,0.585-4.703,0.873-6.771,0.873h-21.604c-6.377,0-12.369,0.975-17.977,2.928c-7.688,2.633-12.929,6.752-15.724,12.355
		c-2.75,5.516-1.555,9.592,3.588,12.227c3.658,1.957,8.638,2.928,14.926,2.928h21.734c2.068,0,4.038,0.291,5.896,0.869
		c2.483,0.834,3.336,2.037,2.55,3.615C453.027,72.726,451.387,73.786,448.719,74.655z M458.664,54.7
		c-2.668,0.871-5.325,1.309-7.97,1.309h-26.695c-2.074,0-4.038-0.289-5.903-0.875c-2.484-0.83-3.335-2.033-2.545-3.609
		c0.784-1.578,2.833-2.779,6.148-3.613c2.44-0.58,4.692-0.869,6.762-0.869h26.702c2.068,0,4.032,0.289,5.896,0.869
		c2.483,0.834,3.336,2.035,2.546,3.613C462.98,52.771,461.332,53.827,458.664,54.7z"/>
	<path fill="#1A171B" d="M554.853,63.13c2.334,1.275,2.978,2.975,1.918,5.096c-0.933,1.871-3.16,3.529-6.688,4.971
		c-2.576,1.016-5.129,1.732-7.653,2.156c-5.178,0.762-9.337,0.303-12.471-1.395l-31.298-16.74l-5.794,11.664
		c-1.178,2.371-4.024,4.188-8.545,5.457c-3.275,0.934-6.406,1.396-9.384,1.396c-2.979,0-5.647-0.463-8.002-1.396
		c-3.301-1.182-4.342-3.002-3.12-5.457l17.381-34.999c1.219-2.454,4.065-4.271,8.542-5.454c3.276-0.929,6.403-1.396,9.383-1.396
		c2.982,0,5.648,0.468,8.001,1.396c3.306,1.183,4.353,3,3.13,5.454l-6.362,12.81l47.926-16.742c4.814-1.69,9.433-2.154,13.856-1.396
		c2.104,0.425,3.936,1.148,5.505,2.169c2.096,1.444,2.679,3.1,1.752,4.969c-1.053,2.12-3.38,3.819-6.979,5.091l-31.79,11.105
		L554.853,63.13z"/>
	<g>
		<path fill="#1A171B" d="M37.505,6.569c1.198-2.287,4.259-3.788,9.185-4.501c2.195-0.327,5.345-0.49,9.452-0.49h11.158
			c0.772,0,1.478,0.103,2.115,0.308c0.888,0.293,1.186,0.718,0.895,1.274c-0.292,0.557-1.036,0.981-2.231,1.274
			c-0.882,0.206-1.694,0.308-2.438,0.308H57.87c-3.514,0-5.914,0.091-7.199,0.271c-1.675,0.242-2.725,0.767-3.15,1.579
			c-0.473,0.902,0.283,1.475,2.267,1.715c0.622,0.061,1.943,0.09,3.964,0.09c3.595,0,6.205,0.179,7.832,0.536
			c3.414,0.742,4.545,2.213,3.394,4.412c-1.758,3.357-7.97,5.035-18.637,5.035H35.154c-0.713,0-1.403-0.102-2.067-0.308
			c-0.902-0.321-1.213-0.747-0.937-1.274c0.291-0.557,1.033-0.981,2.227-1.274c0.879-0.204,1.692-0.308,2.435-0.308h7.799
			c3.566,0,5.937-0.074,7.116-0.226c1.7-0.24,2.764-0.767,3.189-1.579c0.646-1.233-1.126-1.85-5.315-1.85
			C39.794,11.562,35.763,9.897,37.505,6.569z"/>
		<path fill="#1A171B" d="M70.042,18.736c-1.069,0-2.025-0.162-2.864-0.489c-1.179-0.416-1.542-1.055-1.091-1.917l6.441-12.301
			c0.451-0.861,1.484-1.5,3.099-1.917c1.181-0.326,2.307-0.489,3.376-0.489s2.024,0.163,2.864,0.489
			c1.177,0.417,1.542,1.056,1.091,1.917L76.518,16.33c-0.436,0.832-1.47,1.471-3.099,1.917
			C72.237,18.574,71.112,18.736,70.042,18.736z"/>
		<path fill="#1A171B" d="M85.594,6.569c1.198-2.287,4.259-3.788,9.185-4.501c2.195-0.327,5.345-0.49,9.452-0.49h11.158
			c0.772,0,1.478,0.103,2.115,0.308c0.888,0.293,1.186,0.718,0.895,1.274c-0.292,0.557-1.036,0.981-2.231,1.274
			c-0.882,0.206-1.694,0.308-2.438,0.308h-7.771c-3.514,0-5.914,0.091-7.199,0.271c-1.675,0.242-2.725,0.767-3.15,1.579
			c-0.473,0.902,0.283,1.475,2.267,1.715c0.622,0.061,1.943,0.09,3.964,0.09c3.595,0,6.205,0.179,7.832,0.536
			c3.414,0.742,4.545,2.213,3.394,4.412c-1.758,3.357-7.97,5.035-18.637,5.035H83.243c-0.713,0-1.403-0.102-2.067-0.308
			c-0.902-0.321-1.213-0.747-0.937-1.274c0.291-0.557,1.033-0.981,2.227-1.274c0.879-0.204,1.692-0.308,2.435-0.308h7.799
			c3.566,0,5.937-0.074,7.116-0.226c1.7-0.24,2.764-0.767,3.189-1.579c0.646-1.233-1.126-1.85-5.315-1.85
			C87.883,11.562,83.852,9.897,85.594,6.569z"/>
		<path fill="#1A171B" d="M131.387,4.742h-7.354c-1.575,0-2.628-0.06-3.161-0.178c-0.961-0.208-1.271-0.639-0.928-1.293
			c0.575-1.099,2.482-1.648,5.722-1.648h25.137c1.575,0,2.947,0.386,4.118,1.158c0.058,0.06,0.017,0.223-0.123,0.49
			c-0.343,0.654-1.104,1.085-2.281,1.293c-0.657,0.118-1.772,0.178-3.347,0.178h-7.354l-6.024,11.588
			c-0.436,0.832-1.469,1.471-3.099,1.917c-1.166,0.297-2.283,0.445-3.353,0.445c-1.07,0-2.033-0.148-2.887-0.445
			c-1.163-0.446-1.527-1.085-1.091-1.917L131.387,4.742z"/>
		<path fill="#1A171B" d="M175.51,18.275c-0.963,0.308-1.92,0.461-2.871,0.461h-11.187c-3.654,0-6.666-0.549-9.031-1.648
			c-3.263-1.545-4.091-3.848-2.488-6.908c1.603-3.06,4.835-5.349,9.7-6.864c3.517-1.099,7.104-1.648,10.758-1.648h11.143
			c0.772,0,1.475,0.103,2.111,0.308c0.886,0.294,1.185,0.719,0.893,1.274c-0.292,0.558-1.035,0.982-2.228,1.274
			c-0.88,0.206-1.691,0.308-2.434,0.308h-7.755c-2.289,0-4.445,0.345-6.469,1.034c-2.775,0.929-4.68,2.382-5.715,4.359
			c-1.02,1.947-0.613,3.386,1.217,4.314c1.303,0.689,3.083,1.034,5.342,1.034h7.799c0.742,0,1.446,0.103,2.113,0.307
			c0.887,0.293,1.184,0.718,0.892,1.274C177.07,17.595,176.473,17.969,175.51,18.275z M179.197,11.234
			c-0.963,0.308-1.92,0.461-2.871,0.461h-9.582c-0.743,0-1.447-0.103-2.112-0.308c-0.887-0.293-1.184-0.718-0.892-1.274
			c0.291-0.557,1.033-0.981,2.227-1.274c0.88-0.205,1.692-0.309,2.435-0.309h9.582c0.742,0,1.446,0.104,2.112,0.309
			c0.887,0.293,1.184,0.718,0.893,1.274C180.757,10.553,180.161,10.927,179.197,11.234z"/>
		<path fill="#1A171B" d="M180.298,16.196c0.187-0.356,0.536-0.713,1.05-1.07l17.358-12.211c1.178-0.831,2.793-1.248,4.843-1.248
			c1.753,0,3.007,0.328,3.765,0.98c0.206,0.119,0.358,0.253,0.459,0.401l4.036,8.379c0.098,0.208,0.07,0.461-0.085,0.757
			c-0.312,0.596-1.021,1.041-2.126,1.338c-0.838,0.238-1.629,0.356-2.371,0.356c-1.337,0-2.117-0.297-2.341-0.891l-2.083-5.216
			l-13.49,9.761c-1.148,0.832-2.779,1.248-4.888,1.248c-0.98,0-1.839-0.118-2.576-0.356
			C180.302,17.92,179.785,17.177,180.298,16.196z M213.383,4.252c0.482-0.921,1.567-1.604,3.258-2.051
			c1.226-0.356,2.418-0.534,3.578-0.534c2.05,0,3.228,0.417,3.536,1.248l4.569,12.211c0.139,0.357,0.117,0.714-0.07,1.07
			c-0.483,0.922-1.569,1.604-3.257,2.051c-1.228,0.356-2.42,0.534-3.579,0.534c-2.05,0-3.228-0.416-3.536-1.248l-4.613-12.211
			C213.143,4.995,213.181,4.639,213.383,4.252z"/>
		<path fill="#1A171B" d="M259.884,7.371l0.583-1.113c0.28-0.535,0.073-0.936-0.618-1.203c-0.486-0.208-1.055-0.313-1.708-0.313
			h-13.683c-0.773,0-1.469-0.089-2.089-0.268c-0.9-0.267-1.202-0.683-0.906-1.248c0.295-0.564,1.018-0.98,2.168-1.247
			c0.792-0.208,1.575-0.313,2.348-0.313h17.069c2.14,0,4.025,0.342,5.658,1.025c2.22,0.921,2.873,2.259,1.955,4.011l-5.04,9.627
			c-0.436,0.832-1.469,1.471-3.099,1.917c-1.182,0.327-2.306,0.489-3.376,0.489c-1.069,0-2.024-0.162-2.863-0.489
			c-1.18-0.416-1.542-1.055-1.091-1.917l2.31-4.412c0.264-0.505,0.058-0.906-0.618-1.204c-0.486-0.207-1.056-0.311-1.709-0.311
			h-7.711c-0.653,0-1.332,0.104-2.036,0.313c-0.99,0.301-1.617,0.704-1.883,1.214l-1.107,2.113c-0.267,0.51-0.064,0.915,0.612,1.214
			c0.484,0.21,1.053,0.315,1.706,0.315h3.789c0.742,0,1.446,0.103,2.112,0.307c0.887,0.293,1.185,0.718,0.893,1.274
			c-0.276,0.528-1.02,0.953-2.228,1.275c-0.88,0.205-1.691,0.307-2.433,0.307h-7.087c-2.14,0-4.027-0.341-5.659-1.024
			c-2.222-0.921-2.874-2.258-1.956-4.011l0.701-1.338c0.902-1.723,2.954-3.06,6.156-4.011c2.332-0.653,4.569-0.981,6.709-0.981
			H259.884z"/>
		<path fill="#1A171B" d="M274.299,6.569c1.197-2.287,4.259-3.788,9.185-4.501c2.194-0.327,5.345-0.49,9.452-0.49h11.158
			c0.772,0,1.478,0.103,2.115,0.308c0.888,0.293,1.186,0.718,0.895,1.274c-0.292,0.557-1.036,0.981-2.23,1.274
			c-0.883,0.206-1.695,0.308-2.439,0.308h-7.771c-3.514,0-5.914,0.091-7.198,0.271c-1.675,0.242-2.725,0.767-3.149,1.579
			c-0.473,0.902,0.282,1.475,2.267,1.715c0.622,0.061,1.943,0.09,3.963,0.09c3.595,0,6.205,0.179,7.832,0.536
			c3.414,0.742,4.545,2.213,3.393,4.412c-1.758,3.357-7.969,5.035-18.636,5.035h-11.186c-0.713,0-1.403-0.102-2.068-0.308
			c-0.902-0.321-1.213-0.747-0.937-1.274c0.291-0.557,1.033-0.981,2.227-1.274c0.88-0.204,1.692-0.308,2.435-0.308h7.799
			c3.566,0,5.938-0.074,7.116-0.226c1.7-0.24,2.764-0.767,3.189-1.579c0.646-1.233-1.126-1.85-5.315-1.85
			C276.587,11.562,272.556,9.897,274.299,6.569z"/>
	</g>
</g>
</svg>
